<?xml version="1.0" encoding="UTF-8"?>
<svg width="512" height="512" viewBox="0 0 512 512" fill="none" xmlns="http://www.w3.org/2000/svg">
<path d="M256 48C141.1 48 48 141.1 48 256s93.1 208 208 208 208-93.1 208-208S370.9 48 256 48zm-78.9 296.9c-26.7 0-48.3-21.6-48.3-48.3s21.6-48.3 48.3-48.3 48.3 21.6 48.3 48.3-21.6 48.3-48.3 48.3zm157.8 0c-26.7 0-48.3-21.6-48.3-48.3s21.6-48.3 48.3-48.3 48.3 21.6 48.3 48.3-21.6 48.3-48.3 48.3zm-78.9-157.8c-26.7 0-48.3-21.6-48.3-48.3s21.6-48.3 48.3-48.3 48.3 21.6 48.3 48.3-21.6 48.3-48.3 48.3z" fill="#1D4ED8"/>
</svg>